PathFileType	4	(X/Y/Z)	C:\Users\Admin\Desktop\Capture Files\05302019 Reflex Trials\AcheillesTrialStatic_1-Unnamed.trc
DataRate	CameraRate	NumFrames	NumMarkers	Units	OrigDataRate	OrigDataStartFrame	OrigNumFrames
300.00	300.00	      27	0	mm	300.00	848	      1130
Frame#	Time	
		

848	2.823	111.83095	242.72165	383.05716	149.22871	203.66171	235.91812				89.76841	133.51169	368.11331	200.51842	-309.28833	928.17261	145.46962	355.49136	155.05215	-231.54951	209.74658	318.42050	-214.56903	-217.46452	665.94025	288.93768	-317.25931	1019.74860	72.84109	245.33498	246.22156	280.39618	-141.29272	964.31262	99.42796	155.99078	303.98767	124.72294	309.61752	207.59752							91.61448	245.37083	565.27094	113.54037	254.30821	320.39572	
849	2.827	111.83053	242.71698	383.05798	149.22099	203.67625	235.93068				89.75159	133.49348	368.14609	200.50668	-309.28375	928.16431	145.46152	355.51309	155.04295	-231.55519	209.74205	318.44290	-214.55045	-217.43733	665.92480	288.92032	-317.24814	1019.74713	72.84215	245.34508	246.20860	280.37918	-141.30214	964.32306	99.41044	155.98857	303.98145	124.75610	309.63367	207.60271							91.60297	245.36731	565.28271	113.52665	254.32109	320.40250	
850	2.830	111.83233	242.72212	383.06674	149.23302	203.67560	235.92473				89.78503	133.50526	368.13754	200.51166	-309.26501	928.18121	145.47142	355.51425	155.06065	-231.55341	209.73895	318.43469	-214.52856	-217.46356	665.96417	288.88181	-317.18665	1019.80804	72.83339	245.33737	246.22516	280.37637	-141.31593	964.31458	99.44932	155.98782	303.99619	124.75540	309.62750	207.60637							91.60218	245.37042	565.29596	113.53798	254.32187	320.40927	
851	2.833	111.83335	242.71611	383.06952	149.24762	203.67708	235.91881				89.78870	133.51567	368.13303	200.50514	-309.26178	928.17859	145.47469	355.52173	155.06175	-231.55655	209.74408	318.43951	-214.53362	-217.44705	665.91492	288.94788	-317.36880	1019.71655	72.83822	245.37369	246.22409	280.37411	-141.31494	964.32648	99.46947	156.00723	304.01471	124.74869	309.63733	207.61101							91.60741	245.36609	565.28522	113.54098	254.30785	320.39810	
852	2.837	111.83181	242.72630	383.06686	149.23552	203.68819	235.92680				89.81271	133.50632	368.14804	200.51025	-309.26422	928.16693	145.46434	355.53442	155.07399	-231.56094	209.73686	318.44495	-214.48296	-217.48148	665.95270	288.92801	-317.31223	1019.74969	72.85114	245.34949	246.22691	280.40259	-141.33029	964.31689	99.47357	155.99797	303.99817	124.74316	309.64001	207.62025							91.62238	245.36420	565.28302	113.54663	254.32201	320.41431	
853	2.840	111.85031	242.72179	383.06354	149.21068	203.68622	235.92203				89.79193	133.49965	368.14484	200.51054	-309.23303	928.16229	145.46497	355.54077	155.08119	-231.58263	209.74631	318.44824	-214.50351	-217.44685	665.93658	288.93304	-317.32498	1019.73578	72.84242	245.36679	246.23299	280.36862	-141.32161	964.30658	99.48218	156.01074	304.01184	124.75642	309.65067	207.62137							91.60062	245.36557	565.29919	113.53336	254.32199	320.40356	
854	2.843	111.85067	242.71724	383.06473	149.23360	203.70482	235.93448				89.82558	133.52174	368.15561	200.50786	-309.26898	928.15851	145.48148	355.54092	155.08008	-231.57076	209.73897	318.44669	-214.53911	-217.46613	665.94519	288.92807	-317.30313	1019.73724	72.85642	245.35597	246.22766	280.39578	-141.32283	964.31226	99.48102	156.00903	304.00067	124.75686	309.65372	207.62543							91.59770	245.35942	565.29169	113.54460	254.32216	320.40894	
855	2.847	111.83537	242.73935	383.08316	149.21327	203.68222	235.93138				89.82317	133.51324	368.14804	200.51607	-309.25156	928.16272	145.47266	355.55643	155.08382	-231.56915	209.74016	318.45465	-214.52168	-217.46442	665.95935	288.95471	-317.36063	1019.71460	72.87087	245.34955	246.22583	280.39224	-141.32367	964.32312	99.50752	156.02492	304.02158	124.74978	309.66330	207.63460							91.61226	245.35823	565.29596	113.53778	254.33714	320.41107	
856	2.850	111.85583	242.72650	383.07407	149.21864	203.67857	235.92665				89.81915	133.52068	368.14886	200.52090	-309.26685	928.14349	145.47769	355.55151	155.09683	-231.58336	209.74323	318.45898	-214.49913	-217.46367	665.97314	288.90744	-317.25616	1019.75574	72.84697	245.37210	246.24318	280.39334	-141.32184	964.33307	99.48554	156.01474	304.01306	124.76640	309.66794	207.63121							91.61337	245.35478	565.29523	113.55275	254.32802	320.41705	
857	2.853	111.84954	242.73659	383.08374	149.24794	203.70490	235.93802				89.82030	133.51601	368.15613	200.51288	-309.26410	928.14624	145.49649	355.55637	155.09775	-231.58824	209.74048	318.45099	-214.53395	-217.45491	665.96979	288.95938	-317.37604	1019.73212	72.84628	245.37073	246.22974	280.39468	-141.34245	964.32343	99.50745	156.02214	304.01337	124.75188	309.67310	207.63298							91.62724	245.35001	565.30652	113.53265	254.33165	320.42200	
858	2.857	111.84896	242.73492	383.07813	149.22343	203.70580	235.93506				89.78196	133.51836	368.13226	200.49652	-309.22195	928.15936	145.48785	355.55734	155.10503	-231.59186	209.73959	318.46722	-214.53294	-217.45992	665.91614	288.92545	-317.30362	1019.72650	72.85073	245.38953	246.23613	280.42545	-141.32306	964.31897	99.50073	156.02080	304.02167	124.77447	309.67163	207.64787							91.62170	245.35767	565.31201	113.54803	254.33589	320.42615	
859	2.860	111.85339	242.74342	383.08417	149.22166	203.71690	235.94160				89.80308	133.51927	368.14984	200.50970	-309.26434	928.14655	145.48819	355.56638	155.09937	-231.60568	209.74356	318.46469	-214.51540	-217.47202	665.96112	288.95541	-317.41699	1019.71704	72.85934	245.36575	246.23938	280.40530	-141.34543	964.31189	99.48663	156.02684	304.02628	124.75837	309.68826	207.64883							91.62132	245.35126	565.31171	113.55309	254.34151	320.42960	
860	2.863	111.85535	242.73647	383.08194	149.23885	203.72339	235.94119				89.83459	133.53416	368.14166	200.50420	-309.25293	928.14508	145.49171	355.57916	155.10905	-231.61145	209.75153	318.46771	-214.50818	-217.44954	665.93909	288.93219	-317.35248	1019.72461	72.86039	245.38403	246.25081	280.41702	-141.34566	964.32843	99.48997	156.03104	304.02841	124.76641	309.67529	207.65184							91.63349	245.35417	565.30548	113.55505	254.33998	320.42648	
861	2.867	111.85697	242.74852	383.08853	149.25691	203.71535	235.94812				89.79775	133.53645	368.13379	200.51805	-309.27637	928.13037	145.50148	355.58188	155.10765	-231.61240	209.75645	318.47528	-214.51662	-217.46358	665.92450	288.91635	-317.33463	1019.72540	72.84698	245.38487	246.23827	280.40979	-141.34669	964.32819	99.48168	156.03232	304.00372	124.76418	309.68030	207.63994							91.62048	245.36340	565.31915	113.56013	254.34740	320.43359	
862	2.870	111.86165	242.74655	383.09201	149.25542	203.74414	235.95328				89.81032	133.53087	368.14471	200.50487	-309.24454	928.13049	145.48801	355.59338	155.11574	-231.61678	209.74472	318.46939	-214.49950	-217.46431	665.93646	288.95087	-317.42050	1019.71783	72.83647	245.39503	246.23534	280.40720	-141.36269	964.31873	99.49137	156.03670	304.02127	124.75785	309.69931	207.65689							91.62675	245.36205	565.30316	113.56738	254.35945	320.42908	
863	2.873	111.85979	242.74258	383.08548	149.22510	203.72775	235.95284				89.81830	133.54443	368.14304	200.50375	-309.28799	928.14032	145.49811	355.58359	155.12050	-231.62544	209.75656	318.47592	-214.49045	-217.45930	665.94513	288.93701	-317.38861	1019.73761	72.85846	245.38507	246.24738	280.42487	-141.35112	964.31903	99.49531	156.03256	304.02106	124.77277	309.70251	207.65143							91.63090	245.35921	565.31201	113.55177	254.35466	320.43222	
864	2.877	111.84006	242.74974	383.09448	149.22849	203.72476	235.92975				89.83437	133.53691	368.14307	200.51120	-309.29239	928.12976	145.48814	355.58859	155.12532	-231.61690	209.74297	318.46820	-214.48947	-217.46671	665.98328	288.92694	-317.41394	1019.71887	72.83759	245.39661	246.24776	280.41766	-141.35962	964.33252	99.47151	156.03799	304.01669	124.75663	309.69260	207.64348							91.62749	245.35928	565.31238	113.55478	254.35489	320.43814	
865	2.880	111.85433	242.74586	383.08157	149.26884	203.73947	235.95341				89.82034	133.52982	368.13638	200.50262	-309.24112	928.16064	145.50655	355.58667	155.11902	-231.62115	209.74190	318.46103	-214.51799	-217.45639	665.94885	288.92410	-317.36014	1019.71967	72.85037	245.39474	246.23964	280.41605	-141.36159	964.33539	99.49722	156.03120	304.02826	124.77475	309.68976	207.64624							91.62397	245.36778	565.31561	113.55032	254.36107	320.43155	
866	2.883	111.85162	242.75807	383.08514	149.24156	203.71796	235.93153				89.83065	133.52219	368.13660	200.49619	-309.25177	928.13586	145.50717	355.59143	155.11697	-231.62610	209.73714	318.46292	-214.52039	-217.48109	665.97400	288.90103	-317.36411	1019.70636	72.84676	245.40077	246.24559	280.41251	-141.37814	964.33655	99.49280	156.04233	304.01920	124.77466	309.69199	207.64830							91.62706	245.35886	565.30280	113.56152	254.35590	320.42612	
867	2.887	111.85120	242.75514	383.08786	149.24927	203.73915	235.94107				89.81728	133.53107	368.13150	200.50075	-309.27969	928.13013	145.50343	355.58224	155.12053	-231.63739	209.74915	318.46970	-214.52554	-217.48514	665.96765	288.91037	-317.35901	1019.72028	72.86787	245.38577	246.24202	280.39664	-141.38528	964.32715	99.48530	156.02553	304.00244	124.77115	309.70032	207.64813							91.62453	245.36917	565.31073	113.55306	254.36002	320.42075	
868	2.890	111.86660	242.74709	383.07959	149.22388	203.72519	235.94235				89.82952	133.52795	368.14618	200.48660	-309.26669	928.12903	145.49504	355.60400	155.12671	-231.64305	209.73805	318.46802	-214.50887	-217.46826	665.95892	288.89444	-317.28186	1019.75769	72.86885	245.39528	246.23555	280.40964	-141.39749	964.34070	99.48350	156.02408	303.99365	124.75751	309.71759	207.65192							91.62737	245.36441	565.31140	113.55436	254.36467	320.42822	
869	2.893	111.86727	242.74007	383.07938	149.26268	203.73563	235.92482				89.86981	133.52733	368.13995	200.50389	-309.33221	928.12024	145.50499	355.60223	155.11508	-231.63258	209.73700	318.46048	-214.51495	-217.46008	665.95447	288.91531	-317.38040	1019.68774	72.87322	245.38757	246.22527	280.40030	-141.39328	964.34570	99.47964	156.02547	304.00989	124.75869	309.70535	207.65088							91.62880	245.36526	565.30420	113.55933	254.35893	320.43262	
870	2.897	111.85512	242.76518	383.07477	149.24539	203.74274	235.95218				89.81953	133.53490	368.13605	200.48854	-309.24734	928.13812	145.50237	355.60791	155.11464	-231.65027	209.74144	318.45679	-214.51781	-217.45825	665.95648	288.93942	-317.43231	1019.69891	72.86314	245.38898	246.23743	280.41397	-141.38185	964.33545	99.46288	156.01387	303.99014	124.75950	309.71024	207.64812							91.63725	245.38309	565.30573	113.54397	254.37367	320.43256	
871	2.900	111.85655	242.76111	383.07788	149.25381	203.72028	235.93224				89.83048	133.52376	368.12991	200.52725	-309.36179	928.11664	145.50809	355.59143	155.11577	-231.64728	209.74786	318.45831	-214.49622	-217.49113	665.94659	288.90860	-317.35599	1019.72968	72.87434	245.38637	246.23947	280.41547	-141.38492	964.34003	99.50801	156.04463	304.00653	124.76930	309.70587	207.64890							91.64101	245.37668	565.31073	113.56302	254.36356	320.42346	
872	2.903	111.84637	242.76884	383.07916	149.23067	203.73880	235.92674				89.83513	133.52341	368.12640	200.51762	-309.30679	928.10822	145.50256	355.60727	155.11073	-231.65279	209.74893	318.46503	-214.53603	-217.47163	665.93451	288.91589	-317.41476	1019.72272	72.85722	245.41907	246.24388	280.43323	-141.36491	964.34210	99.49131	156.02785	304.01035	124.77648	309.71252	207.63829							91.63186	245.37767	565.30786	113.55043	254.36725	320.42563	
873	2.907	111.84384	242.75914	383.07678	149.25584	203.75514	235.92929				89.82745	133.51772	368.13705	200.48860	-309.30869	928.11432	145.52199	355.60733	155.10568	-231.65439	209.74251	318.45865	-214.52638	-217.45395	665.93030	288.92288	-317.39154	1019.69263	72.87179	245.39867	246.23726	280.43079	-141.38065	964.34204	99.49519	156.06369	304.00656	124.77438	309.70657	207.64560							91.63385	245.37674	565.30597	113.55915	254.37132	320.42538	
874	2.910	111.85069	242.78001	383.09000	149.25948	203.74210	235.93597				89.82399	133.54170	368.12378	200.50391	-309.26096	928.12506	145.49480	355.60757	155.09351	-231.66380	209.74556	318.46576	-214.56813	-217.46521	665.92859	288.93002	-317.42065	1019.71075	72.86042	245.40352	246.23982	280.45267	-141.37306	964.35461	99.49007	156.04268	304.02029	124.76791	309.71552	207.64638							91.63331	245.39243	565.29266	113.55135	254.36615	320.42645	
